# xmcd
#
# Track frame offsets:
#  150
#  16032
#  28830
#  45948
#  58903
#  70748
#  80988
#  100238
#  121975
#  134480
#  148753
#  171348
#  189335
#  203583
#  221933
#  242053
#  255013
#  263021
#  283206
#  296599
#
# Disc length: 4083 seconds
#
# Revision: 0
# Processed by: cddbd v1.4PL0 Copyright (c) Steve Scherf et al.
# Submitted via: AltoMP3_Maker 3.0
#
DISCID=2e0ff114
DTITLE=DALIDA - The Best of DALIDA
DYEAR=1900
DGENRE=
TTITLE0=Bambino
TTITLE1=La Canzone Di Orfeo
TTITLE2=Milord
TTITLE3=O sole Mio
TTITLE4=Come Prima
TTITLE5=Pezzettini Di Bikini
TTITLE6=Un Po' D'Amore
TTITLE7=Aranjuez, La Tua Voce
TTITLE8=L'Ultimo Valzer
TTITLE9=La Danza Di Zorba
TTITLE10=Mamy Blue
TTITLE11=Quelli Erano Giorni
TTITLE12=Salma Ya Salama
TTITLE13=Paroles...Paroles
TTITLE14=La Vien Rose
TTITLE15=Besame Mucho
TTITLE16=Tico, Tico
TTITLE17=Nostalgies
TTITLE18=Petit Homme
TTITLE19=Le Pitit Ganzales
EXTD=
EXTT0=
EXTT1=
EXTT2=
EXTT3=
EXTT4=
EXTT5=
EXTT6=
EXTT7=
EXTT8=
EXTT9=
EXTT10=
EXTT11=
EXTT12=
EXTT13=
EXTT14=
EXTT15=
EXTT16=
EXTT17=
EXTT18=
EXTT19=
PLAYORDER=
